<?xml version="1.0" encoding="UTF-8" standalone="no"?>
<!DOCTYPE svg PUBLIC "-//W3C//DTD SVG 1.1//EN" "http://www.w3.org/Graphics/SVG/1.1/DTD/svg11.dtd">
<svg xmlns="http://www.w3.org/2000/svg" version="1.1" viewBox="0 0 500 500">
<g stroke-width="2.00" fill="none" stroke-linecap="butt">
<path stroke="#808080" vector-effect="non-scaling-stroke" d="
  M 369.61 256.09
  C 380.69 230.08 388.65 200.27 385.01 171.62
  C 375.25 94.84 304.53 42.99 227.89 59.00
  C 167.83 71.54 122.44 127.73 125.10 189.50
  C 126.08 212.20 132.57 235.47 141.06 255.69
  Q 155.28 289.57 176.42 323.07
  Q 211.47 378.61 254.58 427.87
  A 0.96 0.96 0.0 0 0 256.02 427.87
  C 284.94 394.87 311.23 359.73 334.61 322.78
  Q 354.80 290.87 369.61 256.09"
/>
<path stroke="#808080" vector-effect="non-scaling-stroke" d="
  M 145.02 194.88
  C 145.57 247.69 187.06 291.15 238.36 298.41
  C 248.30 299.82 261.55 299.60 271.12 297.87
  C 318.43 289.30 354.34 252.53 360.52 204.61
  C 366.86 155.43 337.64 106.83 291.51 89.77
  C 251.39 74.93 206.58 84.31 176.01 114.87
  A 1.10 1.07 -65.7 0 1 175.20 115.19
  Q 173.95 115.13 173.99 116.41
  A 1.23 1.18 66.6 0 1 173.68 117.25
  Q 150.01 143.11 145.45 177.74
  C 144.74 183.16 144.96 189.20 145.02 194.88"
/>
<path stroke="#b2b2b2" vector-effect="non-scaling-stroke" d="
  M 250.64 166.22
  L 257.69 172.56
  A 1.03 1.02 -63.9 0 1 258.01 173.50
  L 257.27 177.80
  A 0.80 0.79 21.5 0 0 257.63 178.62
  C 260.03 180.09 262.53 173.55 263.45 170.80
  A 0.60 0.59 -73.5 0 0 263.04 170.03
  L 261.00 169.48
  Q 260.56 169.36 260.21 169.06
  L 250.13 160.38
  A 0.71 0.70 26.9 0 1 249.90 159.68
  Q 251.43 153.07 255.06 147.34
  A 1.59 1.57 58.1 0 0 255.30 146.29
  Q 254.45 138.68 257.48 131.59
  Q 258.22 129.88 257.05 128.44
  L 253.63 124.22
  A 1.24 1.22 -64.6 0 1 253.35 123.41
  Q 253.48 119.97 251.94 116.89
  A 0.85 0.84 72.8 0 0 251.09 116.44
  L 247.04 116.97
  A 0.89 0.88 0.4 0 0 246.28 117.71
  L 246.13 118.74
  A 0.85 0.84 -5.5 0 1 245.59 119.39
  C 242.50 120.53 241.44 127.42 240.62 130.42
  Q 239.83 133.32 242.83 133.04
  L 246.90 132.65
  A 0.46 0.45 -83.9 0 1 247.37 133.24
  L 246.56 135.77
  A 0.68 0.67 12.7 0 1 245.82 136.23
  Q 241.12 135.57 237.58 132.47
  C 237.13 132.09 236.72 131.03 235.75 131.19
  A 0.40 0.39 -18.4 0 0 235.46 131.76
  L 237.85 136.38
  A 1.13 1.09 -4.3 0 0 238.51 136.93
  L 245.85 139.19
  A 1.00 0.99 -77.3 0 1 246.53 140.28
  Q 245.39 148.01 245.08 155.75
  C 244.86 161.51 246.13 168.39 245.98 174.86
  A 0.94 0.94 0.0 0 1 245.41 175.71
  L 240.19 177.98
  A 0.38 0.38 0.0 0 0 240.00 178.50
  C 240.60 179.66 248.15 179.27 249.36 179.22
  A 0.73 0.73 0.0 0 0 250.06 178.40
  Q 249.37 172.43 250.08 166.43
  Q 250.16 165.78 250.64 166.22"
/>
<path stroke="#9cdbff" vector-effect="non-scaling-stroke" d="
  M 188.19 180.47
  C 182.60 246.70 266.49 278.22 305.66 225.08
  Q 319.84 205.83 317.93 180.47
  A 0.53 0.53 0.0 0 0 317.40 179.98
  L 188.78 179.93
  A 0.59 0.58 2.1 0 0 188.19 180.47"
/>
<path stroke="#b2b2b2" vector-effect="non-scaling-stroke" d="
  M 333.18 211.93
  C 324.62 223.98 352.39 232.11 348.96 213.38
  Q 348.47 210.67 345.90 211.65
  Q 345.08 211.97 344.77 213.03
  A 1.61 1.61 0.0 0 0 344.77 213.99
  Q 346.15 218.51 342.03 220.22
  Q 339.93 221.09 340.69 218.95
  L 343.11 212.15
  Q 343.72 210.42 342.01 209.76
  Q 336.28 207.56 333.18 211.93"
/>
<path stroke="#b2b2b2" vector-effect="non-scaling-stroke" d="
  M 166.99 224.41
  L 170.16 222.85
  A 0.56 0.56 0.0 0 1 170.92 223.10
  C 171.87 225.05 173.23 229.78 176.32 227.48
  A 2.11 2.09 59.4 0 0 176.97 224.92
  L 175.19 221.04
  A 0.61 0.60 -24.3 0 1 175.50 220.23
  L 178.08 219.08
  A 0.61 0.59 -24.8 0 1 178.86 219.36
  L 181.53 224.81
  A 1.20 1.19 -8.2 0 0 182.41 225.46
  Q 184.54 225.80 185.68 223.95
  A 0.89 0.86 48.8 0 0 185.72 223.11
  L 181.60 214.41
  Q 180.75 212.61 178.95 213.48
  L 161.99 221.73
  Q 160.27 222.57 161.09 224.29
  Q 163.34 229.01 165.50 232.84
  Q 166.31 234.26 168.53 233.43
  A 1.66 1.65 -22.8 0 0 169.46 231.17
  L 166.69 225.27
  A 0.65 0.65 0.0 0 1 166.99 224.41"
/>
<path stroke="#b2b2b2" vector-effect="non-scaling-stroke" d="
  M 321.58 236.00
  C 316.77 236.97 316.23 241.76 318.65 245.38
  C 321.65 249.86 330.28 254.11 332.90 246.80
  A 1.59 1.53 47.7 0 0 332.93 245.84
  L 332.57 244.67
  Q 332.35 243.91 333.09 244.18
  L 334.29 244.63
  A 1.03 1.03 0.0 0 0 335.19 244.55
  Q 336.62 243.66 336.52 241.93
  A 1.03 0.99 18.8 0 0 336.14 241.19
  Q 328.31 234.82 320.35 228.62
  C 318.92 227.51 317.67 227.42 316.75 229.10
  Q 315.86 230.70 317.29 231.84
  L 321.73 235.37
  Q 322.33 235.85 321.58 236.00"
/>
<path stroke="#b2b2b2" vector-effect="non-scaling-stroke" d="
  M 193.30 244.55
  C 192.84 234.54 180.73 240.65 178.61 246.57
  C 177.21 250.50 178.96 253.87 183.25 254.29
  Q 183.75 254.34 183.41 254.71
  C 180.12 258.34 177.87 254.93 176.70 251.96
  A 1.92 1.92 0.0 0 0 174.42 250.81
  C 168.69 252.34 177.19 266.00 186.23 257.98
  Q 191.71 253.12 196.86 247.90
  A 0.85 0.84 53.9 0 0 197.01 246.93
  L 196.10 245.13
  A 0.87 0.87 0.0 0 0 195.13 244.68
  L 193.86 244.98
  A 0.47 0.46 82.1 0 1 193.30 244.55"
/>
<path stroke="#b2b2b2" vector-effect="non-scaling-stroke" d="
  M 302.78 249.17
  A 2.52 2.52 0.0 0 0 300.26 246.65
  A 2.52 2.52 0.0 0 0 297.74 249.17
  A 2.52 2.52 0.0 0 0 300.26 251.69
  A 2.52 2.52 0.0 0 0 302.78 249.17"
/>
<path stroke="#b2b2b2" vector-effect="non-scaling-stroke" d="
  M 305.8904 253.0076
  A 1.88 1.88 0.0 0 0 303.2622 252.6054
  L 302.7303 252.9962
  A 1.88 1.88 0.0 0 0 302.3282 255.6243
  L 309.9296 265.9724
  A 1.88 1.88 0.0 0 0 312.5578 266.3746
  L 313.0897 265.9838
  A 1.88 1.88 0.0 0 0 313.4918 263.3557
  L 305.8904 253.0076"
/>
<path stroke="#b2b2b2" vector-effect="non-scaling-stroke" d="
  M 208.11 266.45
  L 210.27 258.35
  Q 210.80 256.38 208.92 255.58
  C 207.34 254.90 206.34 255.91 206.00 257.44
  Q 204.59 263.66 203.44 269.96
  A 1.46 1.43 -15.6 0 1 202.95 270.81
  L 199.64 273.62
  Q 197.38 275.55 200.06 276.81
  C 202.14 277.78 202.98 276.65 204.75 275.11
  Q 210.89 269.78 216.96 264.37
  C 218.54 262.95 219.21 261.70 217.26 260.18
  Q 215.69 258.97 214.36 260.44
  L 208.66 266.75
  Q 207.77 267.74 208.11 266.45"
/>
<path stroke="#b2b2b2" vector-effect="non-scaling-stroke" d="
  M 291.92 276.35
  Q 292.91 278.38 294.92 276.98
  A 1.64 1.63 -27.5 0 0 295.52 275.08
  Q 293.22 268.90 290.82 262.97
  C 290.09 261.15 289.30 260.83 287.50 261.64
  A 1.68 1.68 0.0 0 0 286.62 263.76
  C 287.59 266.33 290.62 272.17 288.33 274.73
  Q 286.63 276.63 285.57 274.31
  C 284.52 272.04 282.26 262.61 278.70 265.21
  A 1.91 1.91 0.0 0 0 278.02 267.40
  C 279.11 270.50 280.53 275.47 282.62 277.88
  C 285.23 280.88 289.71 280.22 291.19 276.38
  Q 291.52 275.54 291.92 276.35"
/>
<path stroke="#b2b2b2" vector-effect="non-scaling-stroke" d="
  M 261.42 277.08
  Q 261.21 279.69 259.00 280.52
  C 249.13 284.24 248.66 260.91 261.00 268.09
  Q 262.21 268.79 263.65 268.16
  Q 265.98 267.15 264.43 265.14
  C 261.25 261.02 254.79 260.81 251.06 263.85
  C 243.63 269.90 245.87 286.27 257.47 285.61
  C 264.11 285.23 266.71 280.23 266.12 273.97
  Q 265.91 271.70 263.63 271.73
  L 257.10 271.80
  Q 255.02 271.82 254.84 273.89
  C 254.55 277.22 258.97 276.48 260.94 276.55
  A 0.49 0.49 0.0 0 1 261.42 277.08"
/>
<path stroke="#b2b2b2" vector-effect="non-scaling-stroke" d="
  M 249.06 125.94
  Q 247.58 124.15 246.31 122.15
  A 0.36 0.36 0.0 0 0 245.69 122.16
  Q 243.88 125.23 243.68 128.82
  A 0.58 0.57 80.2 0 0 244.47 129.38
  L 249.28 127.39
  A 0.78 0.77 67.0 0 0 249.69 126.36
  Q 249.54 126.01 249.06 125.94"
/>
<path stroke="#b2b2b2" vector-effect="non-scaling-stroke" d="
  M 338.62 213.59
  C 335.87 213.00 334.64 216.86 336.98 218.27
  A 0.51 0.51 0.0 0 0 337.72 218.00
  L 339.02 214.32
  A 0.56 0.56 0.0 0 0 338.62 213.59"
/>
<path stroke="#b2b2b2" vector-effect="non-scaling-stroke" d="
  M 329.3116 245.1694
  A 4.48 2.81 39.0 0 0 327.5984 240.1662
  A 4.48 2.81 39.0 0 0 322.3484 239.5306
  A 4.48 2.81 39.0 0 0 324.0616 244.5338
  A 4.48 2.81 39.0 0 0 329.3116 245.1694"
/>
<path stroke="#b2b2b2" vector-effect="non-scaling-stroke" d="
  M 189.8240 244.6941
  A 4.46 2.79 -42.2 0 0 184.6459 245.6232
  A 4.46 2.79 -42.2 0 0 183.2160 250.6859
  A 4.46 2.79 -42.2 0 0 188.3941 249.7568
  A 4.46 2.79 -42.2 0 0 189.8240 244.6941"
/>
</g>
<path fill="#ffffff" d="
  M 0.00 0.00
  L 500.00 0.00
  L 500.00 500.00
  L 0.00 500.00
  L 0.00 0.00
  Z
  M 369.61 256.09
  C 380.69 230.08 388.65 200.27 385.01 171.62
  C 375.25 94.84 304.53 42.99 227.89 59.00
  C 167.83 71.54 122.44 127.73 125.10 189.50
  C 126.08 212.20 132.57 235.47 141.06 255.69
  Q 155.28 289.57 176.42 323.07
  Q 211.47 378.61 254.58 427.87
  A 0.96 0.96 0.0 0 0 256.02 427.87
  C 284.94 394.87 311.23 359.73 334.61 322.78
  Q 354.80 290.87 369.61 256.09
  Z"
/>
<path fill="#000000" d="
  M 369.61 256.09
  Q 354.80 290.87 334.61 322.78
  C 311.23 359.73 284.94 394.87 256.02 427.87
  A 0.96 0.96 0.0 0 1 254.58 427.87
  Q 211.47 378.61 176.42 323.07
  Q 155.28 289.57 141.06 255.69
  C 132.57 235.47 126.08 212.20 125.10 189.50
  C 122.44 127.73 167.83 71.54 227.89 59.00
  C 304.53 42.99 375.25 94.84 385.01 171.62
  C 388.65 200.27 380.69 230.08 369.61 256.09
  Z
  M 145.02 194.88
  C 145.57 247.69 187.06 291.15 238.36 298.41
  C 248.30 299.82 261.55 299.60 271.12 297.87
  C 318.43 289.30 354.34 252.53 360.52 204.61
  C 366.86 155.43 337.64 106.83 291.51 89.77
  C 251.39 74.93 206.58 84.31 176.01 114.87
  A 1.10 1.07 -65.7 0 1 175.20 115.19
  Q 173.95 115.13 173.99 116.41
  A 1.23 1.18 66.6 0 1 173.68 117.25
  Q 150.01 143.11 145.45 177.74
  C 144.74 183.16 144.96 189.20 145.02 194.88
  Z"
/>
<path fill="#ffffff" d="
  M 238.36 298.41
  C 187.06 291.15 145.57 247.69 145.02 194.88
  C 144.96 189.20 144.74 183.16 145.45 177.74
  Q 150.01 143.11 173.68 117.25
  A 1.23 1.18 66.6 0 0 173.99 116.41
  Q 173.95 115.13 175.20 115.19
  A 1.10 1.07 -65.7 0 0 176.01 114.87
  C 206.58 84.31 251.39 74.93 291.51 89.77
  C 337.64 106.83 366.86 155.43 360.52 204.61
  C 354.34 252.53 318.43 289.30 271.12 297.87
  C 261.55 299.60 248.30 299.82 238.36 298.41
  Z
  M 250.64 166.22
  L 257.69 172.56
  A 1.03 1.02 -63.9 0 1 258.01 173.50
  L 257.27 177.80
  A 0.80 0.79 21.5 0 0 257.63 178.62
  C 260.03 180.09 262.53 173.55 263.45 170.80
  A 0.60 0.59 -73.5 0 0 263.04 170.03
  L 261.00 169.48
  Q 260.56 169.36 260.21 169.06
  L 250.13 160.38
  A 0.71 0.70 26.9 0 1 249.90 159.68
  Q 251.43 153.07 255.06 147.34
  A 1.59 1.57 58.1 0 0 255.30 146.29
  Q 254.45 138.68 257.48 131.59
  Q 258.22 129.88 257.05 128.44
  L 253.63 124.22
  A 1.24 1.22 -64.6 0 1 253.35 123.41
  Q 253.48 119.97 251.94 116.89
  A 0.85 0.84 72.8 0 0 251.09 116.44
  L 247.04 116.97
  A 0.89 0.88 0.4 0 0 246.28 117.71
  L 246.13 118.74
  A 0.85 0.84 -5.5 0 1 245.59 119.39
  C 242.50 120.53 241.44 127.42 240.62 130.42
  Q 239.83 133.32 242.83 133.04
  L 246.90 132.65
  A 0.46 0.45 -83.9 0 1 247.37 133.24
  L 246.56 135.77
  A 0.68 0.67 12.7 0 1 245.82 136.23
  Q 241.12 135.57 237.58 132.47
  C 237.13 132.09 236.72 131.03 235.75 131.19
  A 0.40 0.39 -18.4 0 0 235.46 131.76
  L 237.85 136.38
  A 1.13 1.09 -4.3 0 0 238.51 136.93
  L 245.85 139.19
  A 1.00 0.99 -77.3 0 1 246.53 140.28
  Q 245.39 148.01 245.08 155.75
  C 244.86 161.51 246.13 168.39 245.98 174.86
  A 0.94 0.94 0.0 0 1 245.41 175.71
  L 240.19 177.98
  A 0.38 0.38 0.0 0 0 240.00 178.50
  C 240.60 179.66 248.15 179.27 249.36 179.22
  A 0.73 0.73 0.0 0 0 250.06 178.40
  Q 249.37 172.43 250.08 166.43
  Q 250.16 165.78 250.64 166.22
  Z
  M 188.19 180.47
  C 182.60 246.70 266.49 278.22 305.66 225.08
  Q 319.84 205.83 317.93 180.47
  A 0.53 0.53 0.0 0 0 317.40 179.98
  L 188.78 179.93
  A 0.59 0.58 2.1 0 0 188.19 180.47
  Z
  M 333.18 211.93
  C 324.62 223.98 352.39 232.11 348.96 213.38
  Q 348.47 210.67 345.90 211.65
  Q 345.08 211.97 344.77 213.03
  A 1.61 1.61 0.0 0 0 344.77 213.99
  Q 346.15 218.51 342.03 220.22
  Q 339.93 221.09 340.69 218.95
  L 343.11 212.15
  Q 343.72 210.42 342.01 209.76
  Q 336.28 207.56 333.18 211.93
  Z
  M 166.99 224.41
  L 170.16 222.85
  A 0.56 0.56 0.0 0 1 170.92 223.10
  C 171.87 225.05 173.23 229.78 176.32 227.48
  A 2.11 2.09 59.4 0 0 176.97 224.92
  L 175.19 221.04
  A 0.61 0.60 -24.3 0 1 175.50 220.23
  L 178.08 219.08
  A 0.61 0.59 -24.8 0 1 178.86 219.36
  L 181.53 224.81
  A 1.20 1.19 -8.2 0 0 182.41 225.46
  Q 184.54 225.80 185.68 223.95
  A 0.89 0.86 48.8 0 0 185.72 223.11
  L 181.60 214.41
  Q 180.75 212.61 178.95 213.48
  L 161.99 221.73
  Q 160.27 222.57 161.09 224.29
  Q 163.34 229.01 165.50 232.84
  Q 166.31 234.26 168.53 233.43
  A 1.66 1.65 -22.8 0 0 169.46 231.17
  L 166.69 225.27
  A 0.65 0.65 0.0 0 1 166.99 224.41
  Z
  M 321.58 236.00
  C 316.77 236.97 316.23 241.76 318.65 245.38
  C 321.65 249.86 330.28 254.11 332.90 246.80
  A 1.59 1.53 47.7 0 0 332.93 245.84
  L 332.57 244.67
  Q 332.35 243.91 333.09 244.18
  L 334.29 244.63
  A 1.03 1.03 0.0 0 0 335.19 244.55
  Q 336.62 243.66 336.52 241.93
  A 1.03 0.99 18.8 0 0 336.14 241.19
  Q 328.31 234.82 320.35 228.62
  C 318.92 227.51 317.67 227.42 316.75 229.10
  Q 315.86 230.70 317.29 231.84
  L 321.73 235.37
  Q 322.33 235.85 321.58 236.00
  Z
  M 193.30 244.55
  C 192.84 234.54 180.73 240.65 178.61 246.57
  C 177.21 250.50 178.96 253.87 183.25 254.29
  Q 183.75 254.34 183.41 254.71
  C 180.12 258.34 177.87 254.93 176.70 251.96
  A 1.92 1.92 0.0 0 0 174.42 250.81
  C 168.69 252.34 177.19 266.00 186.23 257.98
  Q 191.71 253.12 196.86 247.90
  A 0.85 0.84 53.9 0 0 197.01 246.93
  L 196.10 245.13
  A 0.87 0.87 0.0 0 0 195.13 244.68
  L 193.86 244.98
  A 0.47 0.46 82.1 0 1 193.30 244.55
  Z
  M 302.78 249.17
  A 2.52 2.52 0.0 0 0 300.26 246.65
  A 2.52 2.52 0.0 0 0 297.74 249.17
  A 2.52 2.52 0.0 0 0 300.26 251.69
  A 2.52 2.52 0.0 0 0 302.78 249.17
  Z
  M 305.8904 253.0076
  A 1.88 1.88 0.0 0 0 303.2622 252.6054
  L 302.7303 252.9962
  A 1.88 1.88 0.0 0 0 302.3282 255.6243
  L 309.9296 265.9724
  A 1.88 1.88 0.0 0 0 312.5578 266.3746
  L 313.0897 265.9838
  A 1.88 1.88 0.0 0 0 313.4918 263.3557
  L 305.8904 253.0076
  Z
  M 208.11 266.45
  L 210.27 258.35
  Q 210.80 256.38 208.92 255.58
  C 207.34 254.90 206.34 255.91 206.00 257.44
  Q 204.59 263.66 203.44 269.96
  A 1.46 1.43 -15.6 0 1 202.95 270.81
  L 199.64 273.62
  Q 197.38 275.55 200.06 276.81
  C 202.14 277.78 202.98 276.65 204.75 275.11
  Q 210.89 269.78 216.96 264.37
  C 218.54 262.95 219.21 261.70 217.26 260.18
  Q 215.69 258.97 214.36 260.44
  L 208.66 266.75
  Q 207.77 267.74 208.11 266.45
  Z
  M 291.92 276.35
  Q 292.91 278.38 294.92 276.98
  A 1.64 1.63 -27.5 0 0 295.52 275.08
  Q 293.22 268.90 290.82 262.97
  C 290.09 261.15 289.30 260.83 287.50 261.64
  A 1.68 1.68 0.0 0 0 286.62 263.76
  C 287.59 266.33 290.62 272.17 288.33 274.73
  Q 286.63 276.63 285.57 274.31
  C 284.52 272.04 282.26 262.61 278.70 265.21
  A 1.91 1.91 0.0 0 0 278.02 267.40
  C 279.11 270.50 280.53 275.47 282.62 277.88
  C 285.23 280.88 289.71 280.22 291.19 276.38
  Q 291.52 275.54 291.92 276.35
  Z
  M 261.42 277.08
  Q 261.21 279.69 259.00 280.52
  C 249.13 284.24 248.66 260.91 261.00 268.09
  Q 262.21 268.79 263.65 268.16
  Q 265.98 267.15 264.43 265.14
  C 261.25 261.02 254.79 260.81 251.06 263.85
  C 243.63 269.90 245.87 286.27 257.47 285.61
  C 264.11 285.23 266.71 280.23 266.12 273.97
  Q 265.91 271.70 263.63 271.73
  L 257.10 271.80
  Q 255.02 271.82 254.84 273.89
  C 254.55 277.22 258.97 276.48 260.94 276.55
  A 0.49 0.49 0.0 0 1 261.42 277.08
  Z"
/>
<path fill="#656564" d="
  M 250.08 166.43
  Q 249.37 172.43 250.06 178.40
  A 0.73 0.73 0.0 0 1 249.36 179.22
  C 248.15 179.27 240.60 179.66 240.00 178.50
  A 0.38 0.38 0.0 0 1 240.19 177.98
  L 245.41 175.71
  A 0.94 0.94 0.0 0 0 245.98 174.86
  C 246.13 168.39 244.86 161.51 245.08 155.75
  Q 245.39 148.01 246.53 140.28
  A 1.00 0.99 -77.3 0 0 245.85 139.19
  L 238.51 136.93
  A 1.13 1.09 -4.3 0 1 237.85 136.38
  L 235.46 131.76
  A 0.40 0.39 -18.4 0 1 235.75 131.19
  C 236.72 131.03 237.13 132.09 237.58 132.47
  Q 241.12 135.57 245.82 136.23
  A 0.68 0.67 12.7 0 0 246.56 135.77
  L 247.37 133.24
  A 0.46 0.45 -83.9 0 0 246.90 132.65
  L 242.83 133.04
  Q 239.83 133.32 240.62 130.42
  C 241.44 127.42 242.50 120.53 245.59 119.39
  A 0.85 0.84 -5.5 0 0 246.13 118.74
  L 246.28 117.71
  A 0.89 0.88 0.4 0 1 247.04 116.97
  L 251.09 116.44
  A 0.85 0.84 72.8 0 1 251.94 116.89
  Q 253.48 119.97 253.35 123.41
  A 1.24 1.22 -64.6 0 0 253.63 124.22
  L 257.05 128.44
  Q 258.22 129.88 257.48 131.59
  Q 254.45 138.68 255.30 146.29
  A 1.59 1.57 58.1 0 1 255.06 147.34
  Q 251.43 153.07 249.90 159.68
  A 0.71 0.70 26.9 0 0 250.13 160.38
  L 260.21 169.06
  Q 260.56 169.36 261.00 169.48
  L 263.04 170.03
  A 0.60 0.59 -73.5 0 1 263.45 170.80
  C 262.53 173.55 260.03 180.09 257.63 178.62
  A 0.80 0.79 21.5 0 1 257.27 177.80
  L 258.01 173.50
  A 1.03 1.02 -63.9 0 0 257.69 172.56
  L 250.64 166.22
  Q 250.16 165.78 250.08 166.43
  Z
  M 249.06 125.94
  Q 247.58 124.15 246.31 122.15
  A 0.36 0.36 0.0 0 0 245.69 122.16
  Q 243.88 125.23 243.68 128.82
  A 0.58 0.57 80.2 0 0 244.47 129.38
  L 249.28 127.39
  A 0.78 0.77 67.0 0 0 249.69 126.36
  Q 249.54 126.01 249.06 125.94
  Z"
/>
<path fill="#ffffff" d="
  M 249.06 125.94
  Q 249.54 126.01 249.69 126.36
  A 0.78 0.77 67.0 0 1 249.28 127.39
  L 244.47 129.38
  A 0.58 0.57 80.2 0 1 243.68 128.82
  Q 243.88 125.23 245.69 122.16
  A 0.36 0.36 0.0 0 1 246.31 122.15
  Q 247.58 124.15 249.06 125.94
  Z"
/>
<path fill="#38b6ff" d="
  M 305.66 225.08
  C 266.49 278.22 182.60 246.70 188.19 180.47
  A 0.59 0.58 2.1 0 1 188.78 179.93
  L 317.40 179.98
  A 0.53 0.53 0.0 0 1 317.93 180.47
  Q 319.84 205.83 305.66 225.08
  Z"
/>
<path fill="#656564" d="
  M 333.18 211.93
  Q 336.28 207.56 342.01 209.76
  Q 343.72 210.42 343.11 212.15
  L 340.69 218.95
  Q 339.93 221.09 342.03 220.22
  Q 346.15 218.51 344.77 213.99
  A 1.61 1.61 0.0 0 1 344.77 213.03
  Q 345.08 211.97 345.90 211.65
  Q 348.47 210.67 348.96 213.38
  C 352.39 232.11 324.62 223.98 333.18 211.93
  Z
  M 338.62 213.59
  C 335.87 213.00 334.64 216.86 336.98 218.27
  A 0.51 0.51 0.0 0 0 337.72 218.00
  L 339.02 214.32
  A 0.56 0.56 0.0 0 0 338.62 213.59
  Z"
/>
<path fill="#656564" d="
  M 166.69 225.27
  L 169.46 231.17
  A 1.66 1.65 -22.8 0 1 168.53 233.43
  Q 166.31 234.26 165.50 232.84
  Q 163.34 229.01 161.09 224.29
  Q 160.27 222.57 161.99 221.73
  L 178.95 213.48
  Q 180.75 212.61 181.60 214.41
  L 185.72 223.11
  A 0.89 0.86 48.8 0 1 185.68 223.95
  Q 184.54 225.80 182.41 225.46
  A 1.20 1.19 -8.2 0 1 181.53 224.81
  L 178.86 219.36
  A 0.61 0.59 -24.8 0 0 178.08 219.08
  L 175.50 220.23
  A 0.61 0.60 -24.3 0 0 175.19 221.04
  L 176.97 224.92
  A 2.11 2.09 59.4 0 1 176.32 227.48
  C 173.23 229.78 171.87 225.05 170.92 223.10
  A 0.56 0.56 0.0 0 0 170.16 222.85
  L 166.99 224.41
  A 0.65 0.65 0.0 0 0 166.69 225.27
  Z"
/>
<path fill="#ffffff" d="
  M 336.98 218.27
  C 334.64 216.86 335.87 213.00 338.62 213.59
  A 0.56 0.56 0.0 0 1 339.02 214.32
  L 337.72 218.00
  A 0.51 0.51 0.0 0 1 336.98 218.27
  Z"
/>
<path fill="#656564" d="
  M 321.73 235.37
  L 317.29 231.84
  Q 315.86 230.70 316.75 229.10
  C 317.67 227.42 318.92 227.51 320.35 228.62
  Q 328.31 234.82 336.14 241.19
  A 1.03 0.99 18.8 0 1 336.52 241.93
  Q 336.62 243.66 335.19 244.55
  A 1.03 1.03 0.0 0 1 334.29 244.63
  L 333.09 244.18
  Q 332.35 243.91 332.57 244.67
  L 332.93 245.84
  A 1.59 1.53 47.7 0 1 332.90 246.80
  C 330.28 254.11 321.65 249.86 318.65 245.38
  C 316.23 241.76 316.77 236.97 321.58 236.00
  Q 322.33 235.85 321.73 235.37
  Z
  M 329.3116 245.1694
  A 4.48 2.81 39.0 0 0 327.5984 240.1662
  A 4.48 2.81 39.0 0 0 322.3484 239.5306
  A 4.48 2.81 39.0 0 0 324.0616 244.5338
  A 4.48 2.81 39.0 0 0 329.3116 245.1694
  Z"
/>
<ellipse fill="#ffffff" cx="0.00" cy="0.00" transform="translate(325.83,242.35) rotate(39.0)" rx="4.48" ry="2.81"/>
<path fill="#656564" d="
  M 193.86 244.98
  L 195.13 244.68
  A 0.87 0.87 0.0 0 1 196.10 245.13
  L 197.01 246.93
  A 0.85 0.84 53.9 0 1 196.86 247.90
  Q 191.71 253.12 186.23 257.98
  C 177.19 266.00 168.69 252.34 174.42 250.81
  A 1.92 1.92 0.0 0 1 176.70 251.96
  C 177.87 254.93 180.12 258.34 183.41 254.71
  Q 183.75 254.34 183.25 254.29
  C 178.96 253.87 177.21 250.50 178.61 246.57
  C 180.73 240.65 192.84 234.54 193.30 244.55
  A 0.47 0.46 82.1 0 0 193.86 244.98
  Z
  M 189.8240 244.6941
  A 4.46 2.79 -42.2 0 0 184.6459 245.6232
  A 4.46 2.79 -42.2 0 0 183.2160 250.6859
  A 4.46 2.79 -42.2 0 0 188.3941 249.7568
  A 4.46 2.79 -42.2 0 0 189.8240 244.6941
  Z"
/>
<ellipse fill="#ffffff" cx="0.00" cy="0.00" transform="translate(186.52,247.69) rotate(-42.2)" rx="4.46" ry="2.79"/>
<circle fill="#656564" cx="300.26" cy="249.17" r="2.52"/>
<rect fill="#656564" x="-2.21" y="-8.30" transform="translate(307.91,259.49) rotate(-36.3)" width="4.42" height="16.60" rx="1.88"/>
<path fill="#656564" d="
  M 208.66 266.75
  L 214.36 260.44
  Q 215.69 258.97 217.26 260.18
  C 219.21 261.70 218.54 262.95 216.96 264.37
  Q 210.89 269.78 204.75 275.11
  C 202.98 276.65 202.14 277.78 200.06 276.81
  Q 197.38 275.55 199.64 273.62
  L 202.95 270.81
  A 1.46 1.43 -15.6 0 0 203.44 269.96
  Q 204.59 263.66 206.00 257.44
  C 206.34 255.91 207.34 254.90 208.92 255.58
  Q 210.80 256.38 210.27 258.35
  L 208.11 266.45
  Q 207.77 267.74 208.66 266.75
  Z"
/>
<path fill="#656564" d="
  M 291.19 276.38
  C 289.71 280.22 285.23 280.88 282.62 277.88
  C 280.53 275.47 279.11 270.50 278.02 267.40
  A 1.91 1.91 0.0 0 1 278.70 265.21
  C 282.26 262.61 284.52 272.04 285.57 274.31
  Q 286.63 276.63 288.33 274.73
  C 290.62 272.17 287.59 266.33 286.62 263.76
  A 1.68 1.68 0.0 0 1 287.50 261.64
  C 289.30 260.83 290.09 261.15 290.82 262.97
  Q 293.22 268.90 295.52 275.08
  A 1.64 1.63 -27.5 0 1 294.92 276.98
  Q 292.91 278.38 291.92 276.35
  Q 291.52 275.54 291.19 276.38
  Z"
/>
<path fill="#656564" d="
  M 260.94 276.55
  C 258.97 276.48 254.55 277.22 254.84 273.89
  Q 255.02 271.82 257.10 271.80
  L 263.63 271.73
  Q 265.91 271.70 266.12 273.97
  C 266.71 280.23 264.11 285.23 257.47 285.61
  C 245.87 286.27 243.63 269.90 251.06 263.85
  C 254.79 260.81 261.25 261.02 264.43 265.14
  Q 265.98 267.15 263.65 268.16
  Q 262.21 268.79 261.00 268.09
  C 248.66 260.91 249.13 284.24 259.00 280.52
  Q 261.21 279.69 261.42 277.08
  A 0.49 0.49 0.0 0 0 260.94 276.55
  Z"
/>
</svg>
