<?xml version="1.0" encoding="UTF-8" standalone="no"?>
<!DOCTYPE svg PUBLIC "-//W3C//DTD SVG 1.1//EN" "http://www.w3.org/Graphics/SVG/1.1/DTD/svg11.dtd">
<svg xmlns="http://www.w3.org/2000/svg" version="1.1" viewBox="0 0 500 500">
<g stroke-width="2.00" fill="none" stroke-linecap="butt">
<path stroke="#808080" vector-effect="non-scaling-stroke" d="
  M 369.62 256.09
  C 380.70 230.07 388.65 200.21 385.01 171.62
  C 375.24 94.84 304.53 42.99 227.89 59.00
  C 167.87 71.53 122.39 127.74 125.11 189.50
  C 126.09 211.72 132.37 234.80 140.54 254.45
  Q 155.90 291.41 179.34 327.87
  Q 213.33 380.73 254.58 427.87
  A 0.96 0.96 0.0 0 0 256.02 427.87
  C 284.94 394.86 311.23 359.73 334.61 322.78
  Q 354.80 290.87 369.62 256.09"
/>
<path stroke="#808080" vector-effect="non-scaling-stroke" d="
  M 145.02 194.86
  C 145.56 247.44 186.68 290.77 237.69 298.32
  C 248.05 299.86 261.67 299.62 271.65 297.81
  C 318.94 289.27 353.82 252.36 360.50 204.79
  C 361.27 199.30 361.01 193.26 360.99 187.53
  C 360.82 144.47 330.99 104.38 291.51 89.77
  C 251.39 74.93 206.58 84.31 176.01 114.87
  A 1.10 1.07 -65.7 0 1 175.20 115.19
  Q 173.95 115.13 173.99 116.41
  A 1.23 1.18 66.6 0 1 173.68 117.25
  Q 150.01 143.11 145.45 177.74
  C 144.74 183.16 144.96 189.19 145.02 194.86"
/>
<path stroke="#acacac" vector-effect="non-scaling-stroke" d="
  M 250.59 166.17
  L 257.71 172.58
  A 1.04 1.03 -63.9 0 1 258.04 173.55
  L 257.27 177.84
  A 0.74 0.73 -70.9 0 0 257.64 178.61
  C 260.35 180.08 262.88 172.42 263.38 170.76
  A 0.60 0.60 0.0 0 0 262.96 170.01
  L 261.02 169.47
  Q 260.53 169.34 260.15 169.01
  L 250.13 160.37
  A 0.70 0.68 27.4 0 1 249.90 159.68
  Q 251.43 153.06 255.06 147.34
  A 1.59 1.57 58.1 0 0 255.30 146.29
  Q 254.45 138.68 257.48 131.59
  Q 258.22 129.88 257.05 128.44
  L 253.63 124.22
  A 1.24 1.22 -64.6 0 1 253.35 123.41
  Q 253.48 119.97 251.94 116.89
  A 0.85 0.84 72.8 0 0 251.09 116.44
  L 247.04 116.97
  A 0.89 0.88 0.4 0 0 246.28 117.71
  L 246.13 118.74
  A 0.85 0.84 -5.5 0 1 245.59 119.39
  C 242.50 120.53 241.44 127.42 240.62 130.42
  Q 239.83 133.32 242.83 133.04
  L 246.90 132.65
  A 0.46 0.45 -83.9 0 1 247.37 133.24
  L 246.56 135.77
  A 0.68 0.67 12.7 0 1 245.82 136.23
  Q 241.12 135.57 237.58 132.47
  C 237.13 132.09 236.72 131.03 235.75 131.19
  A 0.40 0.39 -18.4 0 0 235.46 131.76
  L 237.85 136.38
  A 1.13 1.09 -4.3 0 0 238.51 136.93
  L 245.85 139.19
  A 0.98 0.98 0.0 0 1 246.53 140.28
  Q 245.36 148.17 245.07 156.08
  C 244.87 161.73 246.14 168.52 245.99 174.91
  A 0.94 0.93 -11.3 0 1 245.42 175.75
  L 240.13 177.98
  A 0.39 0.39 0.0 0 0 239.96 178.56
  C 240.75 179.75 248.14 179.21 249.40 179.08
  A 0.48 0.47 88.0 0 0 249.83 178.61
  L 249.87 166.49
  Q 249.88 165.53 250.59 166.17"
/>
<path stroke="#9cdbff" vector-effect="non-scaling-stroke" d="
  M 243.75 179.88
  C 243.68 179.96 158.96 179.79 150.92 179.85
  A 0.53 0.53 0.0 0 0 150.40 180.36
  Q 149.68 196.49 151.00 207.00
  C 156.82 253.48 199.04 292.29 245.76 294.91
  Q 288.59 297.32 320.54 269.53
  Q 346.83 246.66 353.87 213.18
  C 356.04 202.87 355.93 191.12 355.71 180.16
  A 0.42 0.42 0.0 0 0 355.28 179.75
  L 243.98 179.76
  A 0.30 0.28 -70.1 0 0 243.75 179.88"
/>
<path stroke="#acacac" vector-effect="non-scaling-stroke" d="
  M 249.06 125.94
  Q 247.58 124.15 246.31 122.15
  A 0.36 0.36 0.0 0 0 245.69 122.16
  Q 243.88 125.23 243.68 128.82
  A 0.58 0.57 80.2 0 0 244.47 129.38
  L 249.28 127.39
  A 0.78 0.77 67.0 0 0 249.69 126.36
  Q 249.54 126.01 249.06 125.94"
/>
<path stroke="#9cdbff" vector-effect="non-scaling-stroke" d="
  M 184.90 237.09
  L 190.69 232.02
  A 0.56 0.56 0.0 0 1 191.46 232.05
  C 194.00 234.63 198.49 238.28 195.44 242.15
  Q 195.11 242.58 195.65 242.59
  C 198.00 242.63 199.51 238.97 197.69 236.81
  Q 193.13 231.42 188.49 226.09
  A 0.25 0.25 0.0 0 0 188.17 226.04
  L 187.87 226.21
  A 0.28 0.28 0.0 0 0 187.80 226.62
  Q 189.48 228.81 187.35 230.63
  Q 180.32 236.67 173.27 242.90
  A 0.50 0.50 0.0 0 0 173.22 243.60
  Q 176.45 247.48 179.81 251.31
  C 182.01 253.81 184.28 253.99 186.72 251.82
  A 0.33 0.32 -51.6 0 0 186.66 251.29
  Q 186.44 251.16 186.24 251.23
  C 181.90 252.67 178.57 247.90 176.63 244.92
  A 0.57 0.57 0.0 0 1 176.73 244.19
  L 182.98 238.74
  A 0.49 0.49 0.0 0 1 183.67 238.79
  C 184.40 239.66 189.26 246.10 190.24 244.95
  A 0.73 0.73 0.0 0 0 190.23 244.00
  L 184.85 237.83
  A 0.52 0.52 0.0 0 1 184.90 237.09"
/>
<path stroke="#9cdbff" vector-effect="non-scaling-stroke" d="
  M 322.71 235.25
  Q 320.86 237.56 321.85 240.34
  C 325.28 250.03 339.93 250.91 337.99 238.15
  A 0.29 0.29 0.0 0 0 337.54 237.96
  L 337.26 238.15
  A 0.86 0.84 69.0 0 0 336.89 239.00
  C 337.84 244.38 332.63 246.80 328.54 243.54
  A 0.59 0.59 0.0 0 1 328.45 242.71
  L 334.23 235.50
  A 0.51 0.50 -48.5 0 0 334.19 234.82
  Q 327.98 228.68 322.71 235.25"
/>
<path stroke="#9cdbff" vector-effect="non-scaling-stroke" d="
  M 321.52 258.90
  L 323.78 258.46
  A 0.62 0.62 0.0 0 0 324.15 257.47
  L 311.80 241.69
  Q 310.50 240.03 308.70 241.13
  Q 306.95 242.19 305.46 243.47
  Q 304.10 244.63 305.78 244.01
  L 307.78 243.28
  A 0.84 0.83 -35.7 0 1 308.60 243.41
  Q 310.47 244.87 311.67 246.95
  A 0.47 0.46 -22.7 0 1 311.39 247.63
  C 296.15 251.76 316.13 273.96 321.09 259.28
  A 0.59 0.59 0.0 0 1 321.52 258.90"
/>
<path stroke="#9cdbff" vector-effect="non-scaling-stroke" d="
  M 193.50 260.04
  Q 189.14 259.48 187.69 263.47
  Q 186.92 265.59 188.35 267.33
  Q 191.44 271.06 195.26 272.48
  C 200.09 274.27 203.93 268.76 200.86 264.60
  C 199.58 262.87 196.30 260.92 195.80 259.15
  Q 195.31 257.45 196.79 258.43
  C 200.73 261.05 208.89 264.56 208.41 255.76
  A 0.33 0.33 0.0 0 1 208.84 255.43
  Q 209.50 255.65 209.83 255.60
  Q 211.22 255.36 210.09 254.51
  C 206.72 251.99 200.38 246.39 196.83 251.84
  Q 195.61 253.72 196.09 256.29
  A 0.53 0.52 -9.9 0 1 195.66 256.89
  Q 193.58 257.25 194.02 259.48
  A 0.47 0.47 0.0 0 1 193.50 260.04"
/>
<path stroke="#9cdbff" vector-effect="non-scaling-stroke" d="
  M 295.4026 254.9018
  A 1.98 1.70 25.8 0 0 294.3599 252.5095
  A 1.98 1.70 25.8 0 0 291.8374 253.1782
  A 1.98 1.70 25.8 0 0 292.8801 255.5705
  A 1.98 1.70 25.8 0 0 295.4026 254.9018"
/>
<path stroke="#9cdbff" vector-effect="non-scaling-stroke" d="
  M 214.56 280.56
  C 217.70 278.01 223.92 271.03 229.38 264.42
  Q 229.95 263.73 229.07 263.59
  L 228.40 263.49
  A 0.98 0.98 0.0 0 0 227.51 263.80
  L 220.19 271.95
  Q 219.75 272.44 219.70 271.78
  C 219.31 266.55 221.66 258.27 214.05 257.34
  Q 212.81 257.19 213.79 257.96
  C 217.41 260.81 216.35 269.10 216.24 273.28
  C 216.12 277.59 213.99 280.23 209.53 279.66
  C 209.21 279.62 209.15 279.62 208.94 279.89
  A 0.50 0.50 0.0 0 0 209.06 280.62
  Q 212.04 282.59 214.56 280.56"
/>
<path stroke="#9cdbff" vector-effect="non-scaling-stroke" d="
  M 295.31 260.16
  L 301.61 272.08
  A 0.65 0.64 62.6 0 0 302.47 272.36
  L 304.26 271.47
  A 0.63 0.63 0.0 0 0 304.53 270.62
  L 298.10 258.43
  Q 297.23 256.78 295.56 257.58
  L 291.95 259.30
  Q 289.63 260.41 292.17 260.01
  L 294.34 259.68
  A 0.93 0.92 -18.6 0 1 295.31 260.16"
/>
<path stroke="#9cdbff" vector-effect="non-scaling-stroke" d="
  M 259.44 261.81
  Q 263.72 262.39 265.07 267.15
  A 0.35 0.35 0.0 0 0 265.65 267.31
  Q 265.93 267.04 265.93 266.49
  C 265.92 263.74 265.05 262.14 262.39 261.11
  C 239.33 252.15 241.54 295.18 266.05 282.47
  A 0.85 0.83 -14.3 0 0 266.50 281.73
  L 266.50 273.98
  A 0.96 0.96 0.0 0 1 267.01 273.13
  L 268.76 272.21
  Q 269.49 271.82 268.68 271.67
  C 261.94 270.44 263.25 277.44 263.25 281.22
  A 0.75 0.74 78.8 0 1 262.79 281.91
  C 246.17 288.67 245.20 259.87 259.44 261.81"
/>
<path stroke="#9cdbff" vector-effect="non-scaling-stroke" d="
  M 273.54 267.03
  A 0.86 0.84 81.2 0 1 274.33 267.62
  L 277.53 277.36
  Q 278.38 279.94 281.08 280.23
  Q 285.16 280.66 287.77 277.76
  A 0.97 0.96 -66.1 0 1 288.59 277.44
  L 291.01 277.70
  A 0.53 0.53 0.0 0 0 291.58 277.02
  L 287.25 262.30
  A 0.70 0.69 -17.2 0 0 286.37 261.84
  L 284.37 262.50
  A 0.53 0.52 -17.6 0 0 284.03 263.15
  L 287.38 274.49
  Q 288.16 277.13 285.52 277.86
  C 279.69 279.48 278.77 270.05 277.13 266.09
  A 0.84 0.83 -8.2 0 0 276.44 265.58
  Q 273.94 265.34 271.58 266.24
  Q 269.63 266.98 271.72 267.01
  L 273.54 267.03"
/>
<path stroke="#9cdbff" vector-effect="non-scaling-stroke" d="
  M 323.98 236.77
  Q 323.94 239.88 326.47 241.79
  A 0.53 0.53 0.0 0 0 327.20 241.70
  L 330.74 237.15
  A 0.63 0.62 38.7 0 0 330.64 236.28
  Q 328.91 234.87 326.67 234.51
  Q 324.01 234.08 323.98 236.77"
/>
<path stroke="#9cdbff" vector-effect="non-scaling-stroke" d="
  M 314.59 261.18
  A 2.85 2.85 0.0 0 0 317.24 261.57
  Q 319.93 260.61 319.76 257.65
  A 1.80 1.78 -66.1 0 0 319.40 256.70
  L 313.47 249.12
  A 0.87 0.87 0.0 0 0 312.63 248.79
  C 303.90 250.33 311.41 258.82 314.59 261.18"
/>
<path stroke="#9cdbff" vector-effect="non-scaling-stroke" d="
  M 199.9976 258.6852
  A 3.90 3.42 126.0 0 0 205.0568 257.5402
  A 3.90 3.42 126.0 0 0 204.5824 252.3748
  A 3.90 3.42 126.0 0 0 199.5232 253.5198
  A 3.90 3.42 126.0 0 0 199.9976 258.6852"
/>
<path stroke="#9cdbff" vector-effect="non-scaling-stroke" d="
  M 198.2581 268.9259
  A 4.43 3.95 39.3 0 0 197.3319 263.0633
  A 4.43 3.95 39.3 0 0 191.4019 263.3141
  A 4.43 3.95 39.3 0 0 192.3281 269.1767
  A 4.43 3.95 39.3 0 0 198.2581 268.9259"
/>
</g>
<path fill="#ffffff" d="
  M 0.00 0.00
  L 500.00 0.00
  L 500.00 500.00
  L 0.00 500.00
  L 0.00 0.00
  Z
  M 369.62 256.09
  C 380.70 230.07 388.65 200.21 385.01 171.62
  C 375.24 94.84 304.53 42.99 227.89 59.00
  C 167.87 71.53 122.39 127.74 125.11 189.50
  C 126.09 211.72 132.37 234.80 140.54 254.45
  Q 155.90 291.41 179.34 327.87
  Q 213.33 380.73 254.58 427.87
  A 0.96 0.96 0.0 0 0 256.02 427.87
  C 284.94 394.86 311.23 359.73 334.61 322.78
  Q 354.80 290.87 369.62 256.09
  Z"
/>
<path fill="#000000" d="
  M 369.62 256.09
  Q 354.80 290.87 334.61 322.78
  C 311.23 359.73 284.94 394.86 256.02 427.87
  A 0.96 0.96 0.0 0 1 254.58 427.87
  Q 213.33 380.73 179.34 327.87
  Q 155.90 291.41 140.54 254.45
  C 132.37 234.80 126.09 211.72 125.11 189.50
  C 122.39 127.74 167.87 71.53 227.89 59.00
  C 304.53 42.99 375.24 94.84 385.01 171.62
  C 388.65 200.21 380.70 230.07 369.62 256.09
  Z
  M 145.02 194.86
  C 145.56 247.44 186.68 290.77 237.69 298.32
  C 248.05 299.86 261.67 299.62 271.65 297.81
  C 318.94 289.27 353.82 252.36 360.50 204.79
  C 361.27 199.30 361.01 193.26 360.99 187.53
  C 360.82 144.47 330.99 104.38 291.51 89.77
  C 251.39 74.93 206.58 84.31 176.01 114.87
  A 1.10 1.07 -65.7 0 1 175.20 115.19
  Q 173.95 115.13 173.99 116.41
  A 1.23 1.18 66.6 0 1 173.68 117.25
  Q 150.01 143.11 145.45 177.74
  C 144.74 183.16 144.96 189.19 145.02 194.86
  Z"
/>
<path fill="#ffffff" d="
  M 237.69 298.32
  C 186.68 290.77 145.56 247.44 145.02 194.86
  C 144.96 189.19 144.74 183.16 145.45 177.74
  Q 150.01 143.11 173.68 117.25
  A 1.23 1.18 66.6 0 0 173.99 116.41
  Q 173.95 115.13 175.20 115.19
  A 1.10 1.07 -65.7 0 0 176.01 114.87
  C 206.58 84.31 251.39 74.93 291.51 89.77
  C 330.99 104.38 360.82 144.47 360.99 187.53
  C 361.01 193.26 361.27 199.30 360.50 204.79
  C 353.82 252.36 318.94 289.27 271.65 297.81
  C 261.67 299.62 248.05 299.86 237.69 298.32
  Z
  M 250.59 166.17
  L 257.71 172.58
  A 1.04 1.03 -63.9 0 1 258.04 173.55
  L 257.27 177.84
  A 0.74 0.73 -70.9 0 0 257.64 178.61
  C 260.35 180.08 262.88 172.42 263.38 170.76
  A 0.60 0.60 0.0 0 0 262.96 170.01
  L 261.02 169.47
  Q 260.53 169.34 260.15 169.01
  L 250.13 160.37
  A 0.70 0.68 27.4 0 1 249.90 159.68
  Q 251.43 153.06 255.06 147.34
  A 1.59 1.57 58.1 0 0 255.30 146.29
  Q 254.45 138.68 257.48 131.59
  Q 258.22 129.88 257.05 128.44
  L 253.63 124.22
  A 1.24 1.22 -64.6 0 1 253.35 123.41
  Q 253.48 119.97 251.94 116.89
  A 0.85 0.84 72.8 0 0 251.09 116.44
  L 247.04 116.97
  A 0.89 0.88 0.4 0 0 246.28 117.71
  L 246.13 118.74
  A 0.85 0.84 -5.5 0 1 245.59 119.39
  C 242.50 120.53 241.44 127.42 240.62 130.42
  Q 239.83 133.32 242.83 133.04
  L 246.90 132.65
  A 0.46 0.45 -83.9 0 1 247.37 133.24
  L 246.56 135.77
  A 0.68 0.67 12.7 0 1 245.82 136.23
  Q 241.12 135.57 237.58 132.47
  C 237.13 132.09 236.72 131.03 235.75 131.19
  A 0.40 0.39 -18.4 0 0 235.46 131.76
  L 237.85 136.38
  A 1.13 1.09 -4.3 0 0 238.51 136.93
  L 245.85 139.19
  A 0.98 0.98 0.0 0 1 246.53 140.28
  Q 245.36 148.17 245.07 156.08
  C 244.87 161.73 246.14 168.52 245.99 174.91
  A 0.94 0.93 -11.3 0 1 245.42 175.75
  L 240.13 177.98
  A 0.39 0.39 0.0 0 0 239.96 178.56
  C 240.75 179.75 248.14 179.21 249.40 179.08
  A 0.48 0.47 88.0 0 0 249.83 178.61
  L 249.87 166.49
  Q 249.88 165.53 250.59 166.17
  Z
  M 243.75 179.88
  C 243.68 179.96 158.96 179.79 150.92 179.85
  A 0.53 0.53 0.0 0 0 150.40 180.36
  Q 149.68 196.49 151.00 207.00
  C 156.82 253.48 199.04 292.29 245.76 294.91
  Q 288.59 297.32 320.54 269.53
  Q 346.83 246.66 353.87 213.18
  C 356.04 202.87 355.93 191.12 355.71 180.16
  A 0.42 0.42 0.0 0 0 355.28 179.75
  L 243.98 179.76
  A 0.30 0.28 -70.1 0 0 243.75 179.88
  Z"
/>
<path fill="#595959" d="
  M 249.87 166.49
  L 249.83 178.61
  A 0.48 0.47 88.0 0 1 249.40 179.08
  C 248.14 179.21 240.75 179.75 239.96 178.56
  A 0.39 0.39 0.0 0 1 240.13 177.98
  L 245.42 175.75
  A 0.94 0.93 -11.3 0 0 245.99 174.91
  C 246.14 168.52 244.87 161.73 245.07 156.08
  Q 245.36 148.17 246.53 140.28
  A 0.98 0.98 0.0 0 0 245.85 139.19
  L 238.51 136.93
  A 1.13 1.09 -4.3 0 1 237.85 136.38
  L 235.46 131.76
  A 0.40 0.39 -18.4 0 1 235.75 131.19
  C 236.72 131.03 237.13 132.09 237.58 132.47
  Q 241.12 135.57 245.82 136.23
  A 0.68 0.67 12.7 0 0 246.56 135.77
  L 247.37 133.24
  A 0.46 0.45 -83.9 0 0 246.90 132.65
  L 242.83 133.04
  Q 239.83 133.32 240.62 130.42
  C 241.44 127.42 242.50 120.53 245.59 119.39
  A 0.85 0.84 -5.5 0 0 246.13 118.74
  L 246.28 117.71
  A 0.89 0.88 0.4 0 1 247.04 116.97
  L 251.09 116.44
  A 0.85 0.84 72.8 0 1 251.94 116.89
  Q 253.48 119.97 253.35 123.41
  A 1.24 1.22 -64.6 0 0 253.63 124.22
  L 257.05 128.44
  Q 258.22 129.88 257.48 131.59
  Q 254.45 138.68 255.30 146.29
  A 1.59 1.57 58.1 0 1 255.06 147.34
  Q 251.43 153.06 249.90 159.68
  A 0.70 0.68 27.4 0 0 250.13 160.37
  L 260.15 169.01
  Q 260.53 169.34 261.02 169.47
  L 262.96 170.01
  A 0.60 0.60 0.0 0 1 263.38 170.76
  C 262.88 172.42 260.35 180.08 257.64 178.61
  A 0.74 0.73 -70.9 0 1 257.27 177.84
  L 258.04 173.55
  A 1.04 1.03 -63.9 0 0 257.71 172.58
  L 250.59 166.17
  Q 249.88 165.53 249.87 166.49
  Z
  M 249.06 125.94
  Q 247.58 124.15 246.31 122.15
  A 0.36 0.36 0.0 0 0 245.69 122.16
  Q 243.88 125.23 243.68 128.82
  A 0.58 0.57 80.2 0 0 244.47 129.38
  L 249.28 127.39
  A 0.78 0.77 67.0 0 0 249.69 126.36
  Q 249.54 126.01 249.06 125.94
  Z"
/>
<path fill="#ffffff" d="
  M 249.06 125.94
  Q 249.54 126.01 249.69 126.36
  A 0.78 0.77 67.0 0 1 249.28 127.39
  L 244.47 129.38
  A 0.58 0.57 80.2 0 1 243.68 128.82
  Q 243.88 125.23 245.69 122.16
  A 0.36 0.36 0.0 0 1 246.31 122.15
  Q 247.58 124.15 249.06 125.94
  Z"
/>
<path fill="#38b6ff" d="
  M 150.92 179.85
  C 158.96 179.79 243.68 179.96 243.75 179.88
  A 0.30 0.28 -70.1 0 1 243.98 179.76
  L 355.28 179.75
  A 0.42 0.42 0.0 0 1 355.71 180.16
  C 355.93 191.12 356.04 202.87 353.87 213.18
  Q 346.83 246.66 320.54 269.53
  Q 288.59 297.32 245.76 294.91
  C 199.04 292.29 156.82 253.48 151.00 207.00
  Q 149.68 196.49 150.40 180.36
  A 0.53 0.53 0.0 0 1 150.92 179.85
  Z
  M 184.90 237.09
  L 190.69 232.02
  A 0.56 0.56 0.0 0 1 191.46 232.05
  C 194.00 234.63 198.49 238.28 195.44 242.15
  Q 195.11 242.58 195.65 242.59
  C 198.00 242.63 199.51 238.97 197.69 236.81
  Q 193.13 231.42 188.49 226.09
  A 0.25 0.25 0.0 0 0 188.17 226.04
  L 187.87 226.21
  A 0.28 0.28 0.0 0 0 187.80 226.62
  Q 189.48 228.81 187.35 230.63
  Q 180.32 236.67 173.27 242.90
  A 0.50 0.50 0.0 0 0 173.22 243.60
  Q 176.45 247.48 179.81 251.31
  C 182.01 253.81 184.28 253.99 186.72 251.82
  A 0.33 0.32 -51.6 0 0 186.66 251.29
  Q 186.44 251.16 186.24 251.23
  C 181.90 252.67 178.57 247.90 176.63 244.92
  A 0.57 0.57 0.0 0 1 176.73 244.19
  L 182.98 238.74
  A 0.49 0.49 0.0 0 1 183.67 238.79
  C 184.40 239.66 189.26 246.10 190.24 244.95
  A 0.73 0.73 0.0 0 0 190.23 244.00
  L 184.85 237.83
  A 0.52 0.52 0.0 0 1 184.90 237.09
  Z
  M 322.71 235.25
  Q 320.86 237.56 321.85 240.34
  C 325.28 250.03 339.93 250.91 337.99 238.15
  A 0.29 0.29 0.0 0 0 337.54 237.96
  L 337.26 238.15
  A 0.86 0.84 69.0 0 0 336.89 239.00
  C 337.84 244.38 332.63 246.80 328.54 243.54
  A 0.59 0.59 0.0 0 1 328.45 242.71
  L 334.23 235.50
  A 0.51 0.50 -48.5 0 0 334.19 234.82
  Q 327.98 228.68 322.71 235.25
  Z
  M 321.52 258.90
  L 323.78 258.46
  A 0.62 0.62 0.0 0 0 324.15 257.47
  L 311.80 241.69
  Q 310.50 240.03 308.70 241.13
  Q 306.95 242.19 305.46 243.47
  Q 304.10 244.63 305.78 244.01
  L 307.78 243.28
  A 0.84 0.83 -35.7 0 1 308.60 243.41
  Q 310.47 244.87 311.67 246.95
  A 0.47 0.46 -22.7 0 1 311.39 247.63
  C 296.15 251.76 316.13 273.96 321.09 259.28
  A 0.59 0.59 0.0 0 1 321.52 258.90
  Z
  M 193.50 260.04
  Q 189.14 259.48 187.69 263.47
  Q 186.92 265.59 188.35 267.33
  Q 191.44 271.06 195.26 272.48
  C 200.09 274.27 203.93 268.76 200.86 264.60
  C 199.58 262.87 196.30 260.92 195.80 259.15
  Q 195.31 257.45 196.79 258.43
  C 200.73 261.05 208.89 264.56 208.41 255.76
  A 0.33 0.33 0.0 0 1 208.84 255.43
  Q 209.50 255.65 209.83 255.60
  Q 211.22 255.36 210.09 254.51
  C 206.72 251.99 200.38 246.39 196.83 251.84
  Q 195.61 253.72 196.09 256.29
  A 0.53 0.52 -9.9 0 1 195.66 256.89
  Q 193.58 257.25 194.02 259.48
  A 0.47 0.47 0.0 0 1 193.50 260.04
  Z
  M 295.4026 254.9018
  A 1.98 1.70 25.8 0 0 294.3599 252.5095
  A 1.98 1.70 25.8 0 0 291.8374 253.1782
  A 1.98 1.70 25.8 0 0 292.8801 255.5705
  A 1.98 1.70 25.8 0 0 295.4026 254.9018
  Z
  M 214.56 280.56
  C 217.70 278.01 223.92 271.03 229.38 264.42
  Q 229.95 263.73 229.07 263.59
  L 228.40 263.49
  A 0.98 0.98 0.0 0 0 227.51 263.80
  L 220.19 271.95
  Q 219.75 272.44 219.70 271.78
  C 219.31 266.55 221.66 258.27 214.05 257.34
  Q 212.81 257.19 213.79 257.96
  C 217.41 260.81 216.35 269.10 216.24 273.28
  C 216.12 277.59 213.99 280.23 209.53 279.66
  C 209.21 279.62 209.15 279.62 208.94 279.89
  A 0.50 0.50 0.0 0 0 209.06 280.62
  Q 212.04 282.59 214.56 280.56
  Z
  M 295.31 260.16
  L 301.61 272.08
  A 0.65 0.64 62.6 0 0 302.47 272.36
  L 304.26 271.47
  A 0.63 0.63 0.0 0 0 304.53 270.62
  L 298.10 258.43
  Q 297.23 256.78 295.56 257.58
  L 291.95 259.30
  Q 289.63 260.41 292.17 260.01
  L 294.34 259.68
  A 0.93 0.92 -18.6 0 1 295.31 260.16
  Z
  M 259.44 261.81
  Q 263.72 262.39 265.07 267.15
  A 0.35 0.35 0.0 0 0 265.65 267.31
  Q 265.93 267.04 265.93 266.49
  C 265.92 263.74 265.05 262.14 262.39 261.11
  C 239.33 252.15 241.54 295.18 266.05 282.47
  A 0.85 0.83 -14.3 0 0 266.50 281.73
  L 266.50 273.98
  A 0.96 0.96 0.0 0 1 267.01 273.13
  L 268.76 272.21
  Q 269.49 271.82 268.68 271.67
  C 261.94 270.44 263.25 277.44 263.25 281.22
  A 0.75 0.74 78.8 0 1 262.79 281.91
  C 246.17 288.67 245.20 259.87 259.44 261.81
  Z
  M 273.54 267.03
  A 0.86 0.84 81.2 0 1 274.33 267.62
  L 277.53 277.36
  Q 278.38 279.94 281.08 280.23
  Q 285.16 280.66 287.77 277.76
  A 0.97 0.96 -66.1 0 1 288.59 277.44
  L 291.01 277.70
  A 0.53 0.53 0.0 0 0 291.58 277.02
  L 287.25 262.30
  A 0.70 0.69 -17.2 0 0 286.37 261.84
  L 284.37 262.50
  A 0.53 0.52 -17.6 0 0 284.03 263.15
  L 287.38 274.49
  Q 288.16 277.13 285.52 277.86
  C 279.69 279.48 278.77 270.05 277.13 266.09
  A 0.84 0.83 -8.2 0 0 276.44 265.58
  Q 273.94 265.34 271.58 266.24
  Q 269.63 266.98 271.72 267.01
  L 273.54 267.03
  Z"
/>
<path fill="#ffffff" d="
  M 184.90 237.09
  A 0.52 0.52 0.0 0 0 184.85 237.83
  L 190.23 244.00
  A 0.73 0.73 0.0 0 1 190.24 244.95
  C 189.26 246.10 184.40 239.66 183.67 238.79
  A 0.49 0.49 0.0 0 0 182.98 238.74
  L 176.73 244.19
  A 0.57 0.57 0.0 0 0 176.63 244.92
  C 178.57 247.90 181.90 252.67 186.24 251.23
  Q 186.44 251.16 186.66 251.29
  A 0.33 0.32 -51.6 0 1 186.72 251.82
  C 184.28 253.99 182.01 253.81 179.81 251.31
  Q 176.45 247.48 173.22 243.60
  A 0.50 0.50 0.0 0 1 173.27 242.90
  Q 180.32 236.67 187.35 230.63
  Q 189.48 228.81 187.80 226.62
  A 0.28 0.28 0.0 0 1 187.87 226.21
  L 188.17 226.04
  A 0.25 0.25 0.0 0 1 188.49 226.09
  Q 193.13 231.42 197.69 236.81
  C 199.51 238.97 198.00 242.63 195.65 242.59
  Q 195.11 242.58 195.44 242.15
  C 198.49 238.28 194.00 234.63 191.46 232.05
  A 0.56 0.56 0.0 0 0 190.69 232.02
  L 184.90 237.09
  Z"
/>
<path fill="#ffffff" d="
  M 322.71 235.25
  Q 327.98 228.68 334.19 234.82
  A 0.51 0.50 -48.5 0 1 334.23 235.50
  L 328.45 242.71
  A 0.59 0.59 0.0 0 0 328.54 243.54
  C 332.63 246.80 337.84 244.38 336.89 239.00
  A 0.86 0.84 69.0 0 1 337.26 238.15
  L 337.54 237.96
  A 0.29 0.29 0.0 0 1 337.99 238.15
  C 339.93 250.91 325.28 250.03 321.85 240.34
  Q 320.86 237.56 322.71 235.25
  Z
  M 323.98 236.77
  Q 323.94 239.88 326.47 241.79
  A 0.53 0.53 0.0 0 0 327.20 241.70
  L 330.74 237.15
  A 0.63 0.62 38.7 0 0 330.64 236.28
  Q 328.91 234.87 326.67 234.51
  Q 324.01 234.08 323.98 236.77
  Z"
/>
<path fill="#38b6ff" d="
  M 323.98 236.77
  Q 324.01 234.08 326.67 234.51
  Q 328.91 234.87 330.64 236.28
  A 0.63 0.62 38.7 0 1 330.74 237.15
  L 327.20 241.70
  A 0.53 0.53 0.0 0 1 326.47 241.79
  Q 323.94 239.88 323.98 236.77
  Z"
/>
<path fill="#ffffff" d="
  M 321.09 259.28
  C 316.13 273.96 296.15 251.76 311.39 247.63
  A 0.47 0.46 -22.7 0 0 311.67 246.95
  Q 310.47 244.87 308.60 243.41
  A 0.84 0.83 -35.7 0 0 307.78 243.28
  L 305.78 244.01
  Q 304.10 244.63 305.46 243.47
  Q 306.95 242.19 308.70 241.13
  Q 310.50 240.03 311.80 241.69
  L 324.15 257.47
  A 0.62 0.62 0.0 0 1 323.78 258.46
  L 321.52 258.90
  A 0.59 0.59 0.0 0 0 321.09 259.28
  Z
  M 314.59 261.18
  A 2.85 2.85 0.0 0 0 317.24 261.57
  Q 319.93 260.61 319.76 257.65
  A 1.80 1.78 -66.1 0 0 319.40 256.70
  L 313.47 249.12
  A 0.87 0.87 0.0 0 0 312.63 248.79
  C 303.90 250.33 311.41 258.82 314.59 261.18
  Z"
/>
<path fill="#38b6ff" d="
  M 314.59 261.18
  C 311.41 258.82 303.90 250.33 312.63 248.79
  A 0.87 0.87 0.0 0 1 313.47 249.12
  L 319.40 256.70
  A 1.80 1.78 -66.1 0 1 319.76 257.65
  Q 319.93 260.61 317.24 261.57
  A 2.85 2.85 0.0 0 1 314.59 261.18
  Z"
/>
<path fill="#ffffff" d="
  M 194.02 259.48
  Q 193.58 257.25 195.66 256.89
  A 0.53 0.52 -9.9 0 0 196.09 256.29
  Q 195.61 253.72 196.83 251.84
  C 200.38 246.39 206.72 251.99 210.09 254.51
  Q 211.22 255.36 209.83 255.60
  Q 209.50 255.65 208.84 255.43
  A 0.33 0.33 0.0 0 0 208.41 255.76
  C 208.89 264.56 200.73 261.05 196.79 258.43
  Q 195.31 257.45 195.80 259.15
  C 196.30 260.92 199.58 262.87 200.86 264.60
  C 203.93 268.76 200.09 274.27 195.26 272.48
  Q 191.44 271.06 188.35 267.33
  Q 186.92 265.59 187.69 263.47
  Q 189.14 259.48 193.50 260.04
  A 0.47 0.47 0.0 0 0 194.02 259.48
  Z
  M 199.9976 258.6852
  A 3.90 3.42 126.0 0 0 205.0568 257.5402
  A 3.90 3.42 126.0 0 0 204.5824 252.3748
  A 3.90 3.42 126.0 0 0 199.5232 253.5198
  A 3.90 3.42 126.0 0 0 199.9976 258.6852
  Z
  M 198.2581 268.9259
  A 4.43 3.95 39.3 0 0 197.3319 263.0633
  A 4.43 3.95 39.3 0 0 191.4019 263.3141
  A 4.43 3.95 39.3 0 0 192.3281 269.1767
  A 4.43 3.95 39.3 0 0 198.2581 268.9259
  Z"
/>
<ellipse fill="#38b6ff" cx="0.00" cy="0.00" transform="translate(202.29,255.53) rotate(126.0)" rx="3.90" ry="3.42"/>
<ellipse fill="#ffffff" cx="0.00" cy="0.00" transform="translate(293.62,254.04) rotate(25.8)" rx="1.98" ry="1.70"/>
<path fill="#ffffff" d="
  M 229.38 264.42
  C 223.92 271.03 217.70 278.01 214.56 280.56
  Q 212.04 282.59 209.06 280.62
  A 0.50 0.50 0.0 0 1 208.94 279.89
  C 209.15 279.62 209.21 279.62 209.53 279.66
  C 213.99 280.23 216.12 277.59 216.24 273.28
  C 216.35 269.10 217.41 260.81 213.79 257.96
  Q 212.81 257.19 214.05 257.34
  C 221.66 258.27 219.31 266.55 219.70 271.78
  Q 219.75 272.44 220.19 271.95
  L 227.51 263.80
  A 0.98 0.98 0.0 0 1 228.40 263.49
  L 229.07 263.59
  Q 229.95 263.73 229.38 264.42
  Z"
/>
<path fill="#ffffff" d="
  M 294.34 259.68
  L 292.17 260.01
  Q 289.63 260.41 291.95 259.30
  L 295.56 257.58
  Q 297.23 256.78 298.10 258.43
  L 304.53 270.62
  A 0.63 0.63 0.0 0 1 304.26 271.47
  L 302.47 272.36
  A 0.65 0.64 62.6 0 1 301.61 272.08
  L 295.31 260.16
  A 0.93 0.92 -18.6 0 0 294.34 259.68
  Z"
/>
<path fill="#ffffff" d="
  M 259.44 261.81
  C 245.20 259.87 246.17 288.67 262.79 281.91
  A 0.75 0.74 78.8 0 0 263.25 281.22
  C 263.25 277.44 261.94 270.44 268.68 271.67
  Q 269.49 271.82 268.76 272.21
  L 267.01 273.13
  A 0.96 0.96 0.0 0 0 266.50 273.98
  L 266.50 281.73
  A 0.85 0.83 -14.3 0 1 266.05 282.47
  C 241.54 295.18 239.33 252.15 262.39 261.11
  C 265.05 262.14 265.92 263.74 265.93 266.49
  Q 265.93 267.04 265.65 267.31
  A 0.35 0.35 0.0 0 1 265.07 267.15
  Q 263.72 262.39 259.44 261.81
  Z"
/>
<ellipse fill="#38b6ff" cx="0.00" cy="0.00" transform="translate(194.83,266.12) rotate(39.3)" rx="4.43" ry="3.95"/>
<path fill="#ffffff" d="
  M 273.54 267.03
  L 271.72 267.01
  Q 269.63 266.98 271.58 266.24
  Q 273.94 265.34 276.44 265.58
  A 0.84 0.83 -8.2 0 1 277.13 266.09
  C 278.77 270.05 279.69 279.48 285.52 277.86
  Q 288.16 277.13 287.38 274.49
  L 284.03 263.15
  A 0.53 0.52 -17.6 0 1 284.37 262.50
  L 286.37 261.84
  A 0.70 0.69 -17.2 0 1 287.25 262.30
  L 291.58 277.02
  A 0.53 0.53 0.0 0 1 291.01 277.70
  L 288.59 277.44
  A 0.97 0.96 -66.1 0 0 287.77 277.76
  Q 285.16 280.66 281.08 280.23
  Q 278.38 279.94 277.53 277.36
  L 274.33 267.62
  A 0.86 0.84 81.2 0 0 273.54 267.03
  Z"
/>
</svg>
